<svg xmlns="http://www.w3.org/2000/svg" width="256" height="256" viewBox="0 0 100 100"><rect width="100" height="100" rx="20" fill="#a280f8"></rect><path d="M36.94 64.08L30.86 64.08L30.86 81.83Q29.85 82.11 28.01 82.34Q26.17 82.57 24.15 82.57L24.15 82.57Q19.82 82.57 18.12 81.10Q16.42 79.62 16.42 75.76L16.42 75.76L16.42 31.14Q16.42 29.30 17.39 28.29Q18.35 27.28 20.19 26.72L20.19 26.72Q21.66 26.17 23.55 25.80Q25.44 25.44 27.41 25.16Q29.39 24.88 31.37 24.79Q33.35 24.70 35.10 24.70L35.10 24.70Q47.61 24.70 54.05 29.99Q60.49 35.28 60.49 44.48L60.49 44.48Q60.49 48.90 58.88 52.53Q57.27 56.16 54.23 58.74Q51.20 61.32 46.83 62.70Q42.46 64.08 36.94 64.08L36.94 64.08ZM30.77 52.76L36.02 52.76Q40.52 52.76 43.19 50.69Q45.86 48.62 45.86 44.48L45.86 44.48Q45.86 36.29 36.11 36.29L36.11 36.29Q34.45 36.29 33.21 36.38Q31.97 36.48 30.77 36.66L30.77 36.66L30.77 52.76ZM82.75 44.02L82.75 81.83Q81.83 82.11 80.18 82.34Q78.52 82.57 76.50 82.57L76.50 82.57Q72.36 82.57 70.56 81.23Q68.77 79.90 68.77 76.04L68.77 76.04L68.77 38.22Q69.69 37.95 71.34 37.67Q73 37.40 75.02 37.40L75.02 37.40Q79.16 37.40 80.96 38.78Q82.75 40.16 82.75 44.02L82.75 44.02ZM67.94 24.98L67.94 24.98Q67.94 21.85 70.10 19.64Q72.26 17.43 75.76 17.43L75.76 17.43Q79.26 17.43 81.42 19.64Q83.58 21.85 83.58 24.98L83.58 24.98Q83.58 28.20 81.42 30.40Q79.26 32.61 75.76 32.61L75.76 32.61Q72.26 32.61 70.10 30.40Q67.94 28.20 67.94 24.98Z" fill="#fff"></path></svg>